<?xml version="1.0" encoding="UTF-8" standalone="no"?>
<!DOCTYPE svg PUBLIC "-//W3C//DTD SVG 1.1//EN" "http://www.w3.org/Graphics/SVG/1.1/DTD/svg11.dtd">
<svg width="100%" height="100%" viewBox="0 0 16 19" version="1.1" xmlns="http://www.w3.org/2000/svg" xmlns:xlink="http://www.w3.org/1999/xlink" xml:space="preserve" xmlns:serif="http://www.serif.com/" style="fill-rule:evenodd;clip-rule:evenodd;stroke-linejoin:round;stroke-miterlimit:2;">
    <g transform="matrix(1,0,0,-1,0,19)">
        <path d="M15.996,0L15.995,0L0,0.053L0.045,0.825L0.766,13.91L0.86,14.638L4.369,14.589L4.369,15.316C4.369,17.347 6.008,19 8.023,19C10.037,19 11.675,17.347 11.675,15.316L11.627,14.638L15.234,14.592L15.279,13.91L16,0.825L15.996,0.001L15.996,0ZM2.258,13.085L1.581,1.553L14.415,1.501L13.833,13.085L11.675,13.135L11.627,10.904L10.135,10.954L10.185,13.085L5.909,13.135L5.86,10.904L4.369,10.954L4.419,13.085L2.258,13.085ZM8.023,17.447C6.857,17.447 5.909,16.491 5.909,15.316L5.86,14.638L10.135,14.589L10.135,15.316C10.135,16.491 9.188,17.447 8.023,17.447Z" style="fill:rgb(244,51,25);fill-rule:nonzero;"/>
    </g>
</svg>
