<?xml version="1.0" encoding="UTF-8" standalone="no"?>
<!DOCTYPE svg PUBLIC "-//W3C//DTD SVG 1.1//EN" "http://www.w3.org/Graphics/SVG/1.1/DTD/svg11.dtd">
<svg width="100%" height="100%" viewBox="0 0 17 19" version="1.1" xmlns="http://www.w3.org/2000/svg" xmlns:xlink="http://www.w3.org/1999/xlink" xml:space="preserve" xmlns:serif="http://www.serif.com/" style="fill-rule:evenodd;clip-rule:evenodd;stroke-linejoin:round;stroke-miterlimit:2;">
    <g transform="matrix(1,0,0,-1,0,19)">
        <path d="M1.744,0L1.743,0L-0,0.051C-0,2.212 0.797,4.283 2.244,5.883C3.682,7.472 5.632,8.457 7.732,8.654C6.536,8.844 5.438,9.464 4.64,10.398C3.834,11.344 3.389,12.551 3.389,13.796C3.389,16.666 5.693,19 8.525,19C11.356,19 13.66,16.666 13.66,13.796C13.66,12.551 13.215,11.344 12.409,10.398C11.61,9.463 10.513,8.843 9.318,8.654C9.057,8.679 8.791,8.691 8.525,8.691C8.26,8.691 7.994,8.679 7.732,8.654C7.994,8.613 8.26,8.592 8.525,8.592C8.786,8.592 9.052,8.612 9.318,8.654C11.424,8.456 13.37,7.469 14.798,5.875C16.24,4.267 17.022,2.181 17,0.002L15.256,0.051C15.256,1.878 14.558,3.592 13.289,4.879C12.019,6.166 10.327,6.874 8.525,6.874C6.723,6.874 5.029,6.163 3.755,4.873C2.482,3.582 1.768,1.851 1.744,0.001L1.744,0ZM8.525,17.182C7.628,17.182 6.788,16.831 6.159,16.193C5.53,15.556 5.183,14.705 5.183,13.796C5.183,12.887 5.53,12.036 6.159,11.398C6.788,10.761 7.628,10.41 8.525,10.41C9.421,10.41 10.261,10.761 10.89,11.398C11.519,12.036 11.866,12.887 11.866,13.796C11.866,14.705 11.519,15.556 10.89,16.193C10.261,16.831 9.421,17.182 8.525,17.182Z" style="fill:rgb(244,51,25);fill-rule:nonzero;"/>
    </g>
</svg>
