<?xml version="1.0" encoding="UTF-8" standalone="no"?>
<!DOCTYPE svg PUBLIC "-//W3C//DTD SVG 1.1//EN" "http://www.w3.org/Graphics/SVG/1.1/DTD/svg11.dtd">
<svg width="100%" height="100%" viewBox="0 0 24 24" version="1.1" xmlns="http://www.w3.org/2000/svg" xmlns:xlink="http://www.w3.org/1999/xlink" xml:space="preserve" xmlns:serif="http://www.serif.com/" style="fill-rule:evenodd;clip-rule:evenodd;stroke-linejoin:round;stroke-miterlimit:2;">
    <g transform="matrix(1,0,0,1,-780,-2332.5)">
        <g transform="matrix(1,0,0,1,720,1525.5)">
            <g transform="matrix(1,0,0,-1,60,831)">
                <path d="M22.676,24L1.324,24C0.593,24 0,23.407 0,22.676L0,1.324C0,0.593 0.593,0 1.324,0L12.828,0L12.828,9.281L9.703,9.281L9.703,12.914L12.828,12.914L12.828,15.588C12.828,18.687 14.723,20.375 17.487,20.375C18.418,20.377 19.349,20.33 20.276,20.234L20.276,16.994L18.372,16.994C16.866,16.994 16.572,16.283 16.572,15.232L16.572,12.919L20.172,12.919L19.705,9.286L16.552,9.286L16.552,0L22.676,0C23.407,0 24,0.593 24,1.324L24,22.676C24,23.407 23.407,24 22.676,24Z" style="fill:#C7DCFB;fill-rule:nonzero;"/>
            </g>
        </g>
    </g>
</svg>
