<?xml version="1.0" encoding="UTF-8" standalone="no"?>
<!DOCTYPE svg PUBLIC "-//W3C//DTD SVG 1.1//EN" "http://www.w3.org/Graphics/SVG/1.1/DTD/svg11.dtd">
<svg width="100%" height="100%" viewBox="0 0 24 24" version="1.1" xmlns="http://www.w3.org/2000/svg" xmlns:xlink="http://www.w3.org/1999/xlink" xml:space="preserve" xmlns:serif="http://www.serif.com/" style="fill-rule:evenodd;clip-rule:evenodd;stroke-linejoin:round;stroke-miterlimit:2;">
    <g transform="matrix(1,0,0,1,-736,-2332.5)">
        <g transform="matrix(1,0,0,1,720,1525.5)">
            <g transform="matrix(1,0,0,-1,16,831)">
                <path d="M7.052,0.073C5.894,0.126 4.995,0.297 4.139,0.63C3.302,0.956 2.646,1.382 2.014,2.014C1.382,2.646 0.956,3.302 0.63,4.14C0.298,4.996 0.126,5.894 0.072,7.052C0.013,8.324 0,8.748 0,12C0,15.252 0.013,15.676 0.072,16.948C0.126,18.105 0.298,19.004 0.63,19.861C0.956,20.698 1.382,21.354 2.014,21.986C2.646,22.618 3.302,23.044 4.139,23.37C4.996,23.702 5.895,23.874 7.052,23.928C8.324,23.987 8.748,24 12,24C15.252,24 15.676,23.987 16.948,23.928C18.106,23.874 19.004,23.702 19.86,23.37C20.698,23.044 21.354,22.618 21.986,21.986C22.618,21.354 23.044,20.698 23.37,19.861C23.703,19.005 23.874,18.106 23.927,16.948C23.987,15.687 24,15.264 24,12C24,8.736 23.987,8.313 23.927,7.052C23.874,5.891 23.703,4.994 23.37,4.14C23.044,3.302 22.618,2.646 21.986,2.014C21.354,1.382 20.698,0.956 19.86,0.63C19.006,0.297 18.109,0.126 16.948,0.073C15.687,0.013 15.264,0 12,0C8.736,0 8.313,0.013 7.052,0.073ZM7.151,21.768C5.98,21.714 5.345,21.519 4.922,21.355C4.36,21.135 3.961,20.876 3.542,20.458C3.124,20.039 2.865,19.64 2.645,19.078C2.481,18.655 2.286,18.02 2.232,16.849C2.175,15.579 2.163,15.198 2.163,12C2.163,8.803 2.175,8.423 2.232,7.151C2.286,5.987 2.481,5.349 2.645,4.923C2.863,4.363 3.123,3.964 3.542,3.544C3.964,3.123 4.363,2.863 4.922,2.646C5.346,2.481 5.982,2.286 7.151,2.233C8.41,2.175 8.79,2.163 12,2.163C15.21,2.163 15.59,2.175 16.849,2.233C18.02,2.286 18.654,2.481 19.077,2.646C19.637,2.863 20.036,3.124 20.456,3.544C20.876,3.964 21.137,4.363 21.354,4.923C21.519,5.346 21.714,5.98 21.767,7.151C21.825,8.412 21.837,8.791 21.837,12C21.837,15.21 21.825,15.59 21.767,16.849C21.714,18.018 21.519,18.654 21.354,19.078C21.137,19.637 20.877,20.036 20.456,20.458C20.036,20.877 19.637,21.137 19.077,21.355C18.651,21.519 18.013,21.714 16.849,21.768C15.577,21.825 15.197,21.837 12,21.837C8.802,21.837 8.421,21.825 7.151,21.768ZM5.837,12C5.837,15.398 8.602,18.163 12,18.163C15.398,18.163 18.161,15.398 18.161,12C18.161,8.602 15.398,5.839 12,5.839C8.602,5.839 5.837,8.602 5.837,12ZM8,12C8,9.794 9.794,8 12,8C14.206,8 16,9.794 16,12C16,14.206 14.206,16 12,16C9.794,16 8,14.206 8,12ZM16.965,18.406C16.965,19.201 17.611,19.846 18.406,19.846C19.201,19.846 19.845,19.201 19.845,18.406C19.845,17.611 19.201,16.965 18.406,16.965C17.611,16.965 16.965,17.611 16.965,18.406Z" style="fill:#C7DCFB;fill-rule:nonzero;"/>
            </g>
        </g>
    </g>
</svg>
