<?xml version="1.0" encoding="UTF-8" standalone="no"?>
<!DOCTYPE svg PUBLIC "-//W3C//DTD SVG 1.1//EN" "http://www.w3.org/Graphics/SVG/1.1/DTD/svg11.dtd">
<svg width="100%" height="100%" viewBox="0 0 24 25" version="1.1" xmlns="http://www.w3.org/2000/svg" xmlns:xlink="http://www.w3.org/1999/xlink" xml:space="preserve" xmlns:serif="http://www.serif.com/" style="fill-rule:evenodd;clip-rule:evenodd;stroke-linejoin:round;stroke-miterlimit:2;">
    <g transform="matrix(1,0,0,1,-868,-2332.5)">
        <g transform="matrix(1,0,0,1,720,1525.5)">
            <g transform="matrix(1,0,0,-1,148,831.001)">
                <path d="M12,24.001C5.373,24.001 0,18.629 0,12.001C0,6.917 3.163,2.57 7.627,0.822C7.522,1.771 7.427,3.232 7.669,4.268C7.887,5.205 9.076,10.233 9.076,10.233C9.076,10.233 8.717,10.952 8.717,12.015C8.717,13.684 9.684,14.93 10.888,14.93C11.912,14.93 12.406,14.161 12.406,13.239C12.406,12.209 11.751,10.67 11.413,9.243C11.13,8.049 12.011,7.075 13.189,7.075C15.322,7.075 16.962,9.324 16.962,12.57C16.962,15.444 14.897,17.453 11.949,17.453C8.535,17.453 6.531,14.891 6.531,12.245C6.531,11.213 6.928,10.107 7.424,9.506C7.522,9.387 7.536,9.283 7.507,9.162C7.416,8.783 7.214,7.968 7.174,7.801C7.121,7.581 7,7.535 6.772,7.64C5.274,8.338 4.337,10.529 4.337,12.289C4.337,16.075 7.087,19.551 12.266,19.551C16.428,19.551 19.663,16.585 19.663,12.621C19.663,8.485 17.056,5.156 13.436,5.156C12.22,5.156 11.077,5.788 10.686,6.534C10.686,6.534 10.084,4.243 9.938,3.681C9.667,2.639 8.936,1.332 8.447,0.535C9.57,0.188 10.763,0 12,0C18.627,0 24,5.373 24,12.001C24,18.629 18.627,24.001 12,24.001" style="fill:#C7DCFB;fill-rule:nonzero;"/>
            </g>
        </g>
    </g>
</svg>
