<?xml version="1.0" encoding="UTF-8" standalone="no"?>
<!DOCTYPE svg PUBLIC "-//W3C//DTD SVG 1.1//EN" "http://www.w3.org/Graphics/SVG/1.1/DTD/svg11.dtd">
<svg width="100%" height="100%" viewBox="0 0 24 24" version="1.1" xmlns="http://www.w3.org/2000/svg" xmlns:xlink="http://www.w3.org/1999/xlink" xml:space="preserve" xmlns:serif="http://www.serif.com/" style="fill-rule:evenodd;clip-rule:evenodd;stroke-linejoin:round;stroke-miterlimit:2;">
    <g transform="matrix(1,0,0,1,-824,-2332.5)">
        <g transform="matrix(1,0,0,1,720,1525.5)">
            <g transform="matrix(1,0,0,-1,104,831)">
                <path d="M21,0L3,0C1.346,0 0,1.346 0,3L0,21C0,22.654 1.346,24 3,24L21,24C22.654,24 24,22.654 24,21L24,3C24,1.346 22.654,0 21,0ZM4.507,7.278L4.507,7.276C5.915,6.38 7.544,5.905 9.216,5.905C12.509,5.905 14.567,7.456 15.715,8.758C17.148,10.384 17.97,12.535 17.97,14.658C17.97,14.788 17.97,14.923 17.964,15.054C18.555,15.479 19.085,16.031 19.499,16.651C18.95,16.404 18.354,16.242 17.729,16.165C18.37,16.545 18.852,17.149 19.086,17.868C18.486,17.511 17.827,17.261 17.13,17.125C16.54,17.751 15.743,18.097 14.886,18.097C13.189,18.097 11.808,16.716 11.808,15.019C11.808,14.796 11.833,14.567 11.885,14.317C9.423,14.438 7.112,15.61 5.544,17.532C5.274,17.066 5.13,16.531 5.13,15.984C5.13,14.954 5.641,13.997 6.497,13.422C6.009,13.44 5.528,13.574 5.106,13.806L5.106,13.764C5.106,12.303 6.143,11.033 7.572,10.746C7.31,10.673 7.038,10.638 6.762,10.638C6.57,10.638 6.376,10.656 6.186,10.692C6.585,9.439 7.74,8.58 9.06,8.556C7.957,7.692 6.635,7.236 5.238,7.236C4.978,7.236 4.732,7.25 4.507,7.278Z" style="fill:#C7DCFB;fill-rule:nonzero;"/>
            </g>
        </g>
    </g>
</svg>
