<?xml version="1.0" encoding="UTF-8" standalone="no"?>
<!DOCTYPE svg PUBLIC "-//W3C//DTD SVG 1.1//EN" "http://www.w3.org/Graphics/SVG/1.1/DTD/svg11.dtd">
<svg width="100%" height="100%" viewBox="0 0 126 100" version="1.1" xmlns="http://www.w3.org/2000/svg" xmlns:xlink="http://www.w3.org/1999/xlink" xml:space="preserve" xmlns:serif="http://www.serif.com/" style="fill-rule:evenodd;clip-rule:evenodd;stroke-linejoin:round;stroke-miterlimit:2;">
    <g transform="matrix(1.92022,0,0,-1.92022,5.39353,65.2172)">
        <path d="M22.266,0C20.801,0 19.463,0.326 18.291,0.969C17.118,1.611 16.185,2.541 15.516,3.733C14.848,4.922 14.51,6.335 14.51,7.931C14.51,9.52 14.848,10.928 15.516,12.117C16.183,13.307 17.117,14.237 18.291,14.882C19.465,15.524 20.803,15.849 22.266,15.849C23.332,15.849 24.339,15.673 25.261,15.325C26.18,14.979 26.998,14.469 27.69,13.81C28.378,13.154 28.92,12.358 29.301,11.446L26.898,10.527C26.505,11.438 25.891,12.159 25.072,12.669C24.253,13.178 23.309,13.437 22.266,13.437C21.294,13.437 20.404,13.215 19.621,12.777C18.838,12.339 18.212,11.697 17.763,10.867C17.313,10.039 17.084,9.051 17.084,7.931C17.084,6.804 17.313,5.811 17.763,4.982C18.212,4.153 18.838,3.511 19.621,3.073C20.404,2.635 21.294,2.413 22.266,2.413C23.316,2.413 24.262,2.669 25.077,3.176C25.892,3.681 26.504,4.4 26.898,5.312L29.301,4.392C28.922,3.488 28.38,2.697 27.69,2.04C27.003,1.385 26.186,0.875 25.261,0.525C24.339,0.177 23.332,0 22.266,0ZM33.436,0.205L30.872,0.206L32.099,15.633L35.687,15.633L39.641,4.729L43.627,15.633L47.214,15.633L48.432,0.207L45.879,0.206L44.866,12.387L40.459,0.206L38.843,0.206L34.459,12.366L33.436,0.206L33.436,0.205ZM2.661,0.205L0,0.206L5.656,15.633L8.791,15.633L14.445,0.207L11.796,0.206L10.579,3.635L3.868,3.635L2.661,0.206L2.661,0.205ZM7.229,13.144L4.654,5.853L9.804,5.853L7.229,13.144ZM60,0.206L51.425,0.206L51.425,15.633L60,15.633L60,13.329L54.031,13.329L54.031,9.056L59.31,9.056L59.31,6.772L54.031,6.772L54.031,2.521L60,2.521L60,0.206Z" style="fill:rgb(0,101,242);fill-rule:nonzero;"/>
    </g>
</svg>
